<?xml version="1.0" encoding="UTF-8"?>
<svg width="150" height="60" viewBox="0 0 150 60" fill="none" xmlns="http://www.w3.org/2000/svg">
<path fill-rule="evenodd" clip-rule="evenodd" d="M0 29.2603V51.3553L19.0072 40.3429L0 29.2603Z" fill="#005EB8"/>
<path fill-rule="evenodd" clip-rule="evenodd" d="M51.351 29.2603V51.3553L32.3438 40.3429L51.351 29.2603Z" fill="#005EB8"/>
<path fill-rule="evenodd" clip-rule="evenodd" d="M0 59.1648H51.351L25.6755 44.2298L0 59.1648Z" fill="#005EB8"/>
<path fill-rule="evenodd" clip-rule="evenodd" d="M40.4454 0V15.8174H37.8691V0H26.9637V15.8174H24.3874V0H13.4817V15.8174H10.9054V0H0.00139183L0 21.529L25.6755 36.464L51.351 21.529V0H40.4454Z" fill="#9063CD"/>
<path fill-rule="evenodd" clip-rule="evenodd" d="M57.4868 45.6185L57.9035 45.0351C58.1976 44.6457 58.5407 44.5973 59.0064 44.8889C59.6189 45.3266 60.9424 46.2751 62.7809 46.2751C64.6188 46.2751 65.8198 45.3023 65.8198 43.8188C65.8198 40.0253 57.4868 40.8765 57.4868 35.5263C57.4868 32.6326 59.9378 30.7598 63.0992 30.7598C65.158 30.7598 66.7757 31.5626 67.4374 32.073C67.8541 32.3651 67.9029 32.7296 67.6823 33.1674L67.3394 33.7753C67.0453 34.286 66.6531 34.2374 66.2365 33.9942C65.5747 33.6051 64.5208 32.9974 63.0505 32.9974C61.2613 32.9974 59.9378 33.9215 59.9378 35.4047C59.9378 39.1012 68.2708 38.1039 68.2708 43.6243C68.2708 46.3237 66.2365 48.5124 62.7809 48.5124C60.2806 48.5124 58.3692 47.3694 57.5849 46.7371C57.2662 46.4453 57.1192 46.1048 57.4868 45.6185Z" fill="#005EB8"/>
<path fill-rule="evenodd" clip-rule="evenodd" d="M76.5304 35.6236C78.6135 35.6236 79.9615 36.4261 80.6233 36.9368C81.0399 37.2043 81.0644 37.6178 80.7703 38.0312L80.5252 38.396C80.2311 38.8337 79.8883 38.858 79.4223 38.5905C78.9076 38.2257 77.952 37.6664 76.6527 37.6664C74.153 37.6664 72.3393 39.5146 72.3393 42.0436C72.3393 44.5484 74.153 46.4696 76.7017 46.4696C78.1968 46.4696 79.2752 45.7887 79.8635 45.3509C80.3046 45.0591 80.6723 45.1078 80.9664 45.5698L81.1625 45.9346C81.4076 46.3483 81.334 46.7371 80.9419 47.0046C80.2556 47.564 78.7608 48.5124 76.5304 48.5124C72.6334 48.5124 69.9128 45.7644 69.9128 42.0679C69.9128 38.4203 72.6579 35.6236 76.5304 35.6236Z" fill="#005EB8"/>
<path fill-rule="evenodd" clip-rule="evenodd" d="M88.9637 46.4696C91.3164 46.4696 93.2281 44.6214 93.2281 42.0436C93.2281 39.4903 91.3164 37.6664 88.9637 37.6664C86.635 37.6664 84.6991 39.4903 84.6991 42.0436C84.6991 44.6214 86.635 46.4696 88.9637 46.4696ZM88.9637 35.6236C92.6644 35.6236 95.6546 38.3227 95.6546 42.0436C95.6546 45.7887 92.6644 48.5124 88.9637 48.5124C85.2628 48.5124 82.2971 45.7887 82.2971 42.0436C82.2971 38.3227 85.2628 35.6236 88.9637 35.6236Z" fill="#005EB8"/>
<path fill-rule="evenodd" clip-rule="evenodd" d="M98.3115 37.9582H97.4537C96.939 37.9582 96.6697 37.6664 96.6697 37.1557V36.8395C96.6697 36.3291 96.939 36.037 97.4785 36.037H98.3606V33.3376C98.3606 32.8029 98.655 32.5351 99.1694 32.5351H99.8802C100.419 32.5351 100.689 32.8029 100.689 33.3376V36.037H102.846C103.385 36.037 103.655 36.3291 103.655 36.8395V37.1557C103.655 37.6664 103.385 37.9582 102.87 37.9582H100.689V43.4297C100.689 45.7644 102.135 46.1294 103.042 46.2021C103.679 46.2508 103.9 46.4453 103.9 47.0047V47.5153C103.9 48.0747 103.581 48.3176 102.919 48.3176C100.468 48.3176 98.3115 46.9074 98.3115 43.7945V37.9582Z" fill="#005EB8"/>
<path fill-rule="evenodd" clip-rule="evenodd" d="M105.983 31.8541C105.983 31.3194 106.253 31.0519 106.791 31.0519H107.552C108.066 31.0519 108.36 31.3194 108.36 31.8541V44.573C108.36 45.9589 108.973 46.1535 109.488 46.2021C109.855 46.2508 110.125 46.4453 110.125 46.9074V47.491C110.125 48.0017 109.904 48.3176 109.291 48.3176C107.968 48.3176 105.983 47.9531 105.983 44.8646V31.8541Z" fill="#005EB8"/>
<path fill-rule="evenodd" clip-rule="evenodd" d="M116.424 46.6399C118.507 46.6399 119.782 44.5484 119.782 42.7245V42.1897H119.144C117.405 42.1897 114.12 42.3357 114.12 44.67C114.12 45.6428 114.904 46.6399 116.424 46.6399ZM119.12 40.6333H119.757V40.3169C119.757 38.2987 118.581 37.6178 117.061 37.6178C115.836 37.6178 114.831 38.0798 114.267 38.396C113.801 38.6148 113.434 38.5416 113.164 38.1039L112.968 37.7637C112.723 37.3016 112.797 36.9125 113.238 36.6693C113.973 36.2559 115.37 35.6236 117.257 35.6236C120.345 35.6236 122.135 37.3259 122.135 40.4388V47.4181C122.135 47.9531 121.84 48.2206 121.326 48.2206H120.713C120.198 48.2206 119.904 47.9531 119.904 47.4181V46.6885C119.904 46.2264 119.978 45.9346 119.978 45.9346H119.929C119.929 45.9346 118.777 48.5124 115.885 48.5124C113.704 48.5124 111.718 47.1749 111.718 44.8646C111.718 41.0467 116.547 40.6333 119.12 40.6333Z" fill="#005EB8"/>
<path fill-rule="evenodd" clip-rule="evenodd" d="M124.267 36.718C124.267 36.1829 124.561 35.9157 125.076 35.9157H125.762C126.301 35.9157 126.571 36.1829 126.571 36.718V37.8123C126.571 38.1771 126.497 38.5176 126.497 38.5176H126.546C127.036 37.4475 128.531 35.6236 131.252 35.6236C134.168 35.6236 135.492 37.2043 135.492 40.3415V47.4181C135.492 47.9531 135.222 48.2206 134.683 48.2206H133.923C133.409 48.2206 133.115 47.9531 133.115 47.4181V40.8765C133.115 39.1499 132.772 37.788 130.786 37.788C128.384 37.788 126.644 39.7822 126.644 42.3357V47.4181C126.644 47.9531 126.375 48.2206 125.835 48.2206H125.076C124.561 48.2206 124.267 47.9531 124.267 47.4181V36.718Z" fill="#005EB8"/>
<path fill-rule="evenodd" clip-rule="evenodd" d="M143.262 46.4696C145.1 46.4696 146.84 45.1807 146.84 42.0436C146.84 39.8548 145.688 37.6907 143.311 37.6907C141.374 37.6907 139.757 39.2715 139.757 42.0679C139.757 44.743 141.203 46.4696 143.262 46.4696ZM142.943 35.6236C145.786 35.6236 146.791 37.7394 146.791 37.7394H146.84C146.84 37.7394 146.766 37.3746 146.766 36.9125V31.8541C146.766 31.3194 147.036 31.0519 147.575 31.0519H148.335C148.874 31.0519 149.144 31.3194 149.144 31.8541V47.4181C149.144 47.9531 148.874 48.2206 148.335 48.2206H147.698C147.158 48.2206 146.889 47.9531 146.889 47.4667V46.7615C146.889 46.421 146.938 46.1535 146.938 46.1535H146.889C146.889 46.1535 145.835 48.5124 142.796 48.5124C139.438 48.5124 137.33 45.8863 137.33 42.0679C137.33 38.1528 139.659 35.6236 142.943 35.6236Z" fill="#005EB8"/>
<path fill-rule="evenodd" clip-rule="evenodd" d="M64.3087 13.3069H61.3322V18.6143H64.2157C66.1924 18.6143 67.0296 17.9682 67.0296 15.8914C67.0296 13.976 66.2389 13.3069 64.3087 13.3069ZM67.2156 20.4601L71.5176 27.8904H67.7507L64.3087 21.083H61.3322V27.8904H58.1226V10.5843H64.2853C68.3782 10.5843 70.3551 12.2225 70.3551 15.7762C70.3551 18.3142 69.2388 19.9753 67.2156 20.4601Z" fill="#9063CD"/>
<path fill-rule="evenodd" clip-rule="evenodd" d="M80.7741 19.6294C80.7279 17.1837 79.6116 16.2606 77.8675 16.2606C75.844 16.2606 74.9837 17.276 74.8442 19.6294H80.7741ZM71.8442 20.6911C71.8442 16.2836 73.7975 13.7685 77.8444 13.7685C81.286 13.7685 83.4952 15.7762 83.4952 20.2064C83.4952 20.6447 83.4718 21.1985 83.4256 21.6141H74.9138C75.0536 24.5211 76.286 25.5364 78.9607 25.5364C80.3324 25.5364 81.5417 25.2827 82.7276 24.7748L83.0766 27.1979C81.8904 27.7749 80.3558 28.1438 78.6117 28.1438C73.8905 28.1438 71.8442 25.6752 71.8442 20.6911Z" fill="#9063CD"/>
<path fill-rule="evenodd" clip-rule="evenodd" d="M97.7973 13.9992L92.5882 27.8904H89.1234L83.9143 13.9992H87.1699L90.2863 23.5058L90.8444 25.2827H90.914L91.4488 23.5058L94.5651 13.9992H97.7973Z" fill="#9063CD"/>
<path fill-rule="evenodd" clip-rule="evenodd" d="M107.194 19.6294C107.147 17.1837 106.031 16.2606 104.287 16.2606C102.264 16.2606 101.403 17.276 101.264 19.6294H107.194ZM98.2637 20.6911C98.2637 16.2836 100.217 13.7685 104.263 13.7685C107.705 13.7685 109.914 15.7762 109.914 20.2064C109.914 20.6447 109.891 21.1985 109.844 21.6141H101.333C101.473 24.5211 102.705 25.5364 105.38 25.5364C106.752 25.5364 107.961 25.2827 109.147 24.7748L109.496 27.1979C108.31 27.7749 106.775 28.1438 105.031 28.1438C100.31 28.1438 98.2637 25.6752 98.2637 20.6911Z" fill="#9063CD"/>
<path fill-rule="evenodd" clip-rule="evenodd" d="M120.17 27.8904V18.9144C120.17 17.1607 119.217 16.4223 117.496 16.4223C116.449 16.4223 115.286 16.8838 114.705 17.6913V27.8904H111.752V14.0683L113.868 13.9069L114.333 15.2453C115.379 14.2761 116.798 13.7455 118.31 13.7455C121.263 13.7455 123.124 15.5222 123.124 18.8912V27.8904H120.17Z" fill="#9063CD"/>
<path fill-rule="evenodd" clip-rule="evenodd" d="M136.589 23.1366C136.589 26.3904 134.728 28.1438 130.892 28.1438C127.054 28.1438 125.217 26.3213 125.217 23.1366V13.9992H128.171V23.0675C128.171 24.6598 129.054 25.4905 130.915 25.4905C132.729 25.4905 133.635 24.6825 133.635 23.0675V13.9992H136.589V23.1366Z" fill="#9063CD"/>
<path fill-rule="evenodd" clip-rule="evenodd" d="M147.194 19.6294C147.147 17.1837 146.031 16.2606 144.287 16.2606C142.264 16.2606 141.403 17.276 141.264 19.6294H147.194ZM138.264 20.6911C138.264 16.2836 140.217 13.7685 144.263 13.7685C147.705 13.7685 149.914 15.7762 149.914 20.2064C149.914 20.6447 149.891 21.1985 149.845 21.6141H141.333C141.473 24.5211 142.705 25.5364 145.38 25.5364C146.752 25.5364 147.961 25.2827 149.147 24.7748L149.496 27.1979C148.31 27.7749 146.775 28.1438 145.031 28.1438C140.31 28.1438 138.264 25.6752 138.264 20.6911Z" fill="#9063CD"/>
<path fill-rule="evenodd" clip-rule="evenodd" d="M60.434 52.8517H58.3186C58.0969 52.8517 57.9861 52.7315 57.9861 52.522V52.3222C57.9861 52.1023 58.0969 51.9926 58.3186 51.9926H63.5361C63.7475 51.9926 63.8584 52.1023 63.8584 52.3222V52.522C63.8584 52.7315 63.7475 52.8517 63.5361 52.8517H61.4208V58.7154C61.4208 58.9354 61.2999 59.0451 61.0885 59.0451H60.7562C60.5446 59.0451 60.434 58.9354 60.434 58.7154V52.8517Z" fill="#005EB8"/>
<path fill-rule="evenodd" clip-rule="evenodd" d="M66.4762 55.9781C66.4459 55.0891 65.9119 54.6298 65.2374 54.6298C64.4918 54.6298 63.8877 55.1292 63.7467 55.9781H66.4762ZM65.2574 53.8704C66.6676 53.8704 67.4533 54.8694 67.4533 56.278C67.4533 56.4581 67.3121 56.6179 67.1107 56.6179H63.7064C63.7668 57.7167 64.5625 58.326 65.4688 58.326C66.0228 58.326 66.4562 58.0961 66.6876 57.9264C66.879 57.8264 67.0302 57.8463 67.141 58.0361L67.2316 58.1859C67.3324 58.3559 67.302 58.5258 67.1307 58.6256C66.8288 58.8353 66.2244 59.1648 65.4084 59.1648C63.8069 59.1648 62.709 58.0162 62.709 56.5178C62.709 54.9095 63.8069 53.8704 65.2574 53.8704Z" fill="#005EB8"/>
<path fill-rule="evenodd" clip-rule="evenodd" d="M69.7587 58.3957C70.6146 58.3957 71.1385 57.5368 71.1385 56.7876V56.5676H70.8767C70.1615 56.5676 68.8118 56.6276 68.8118 57.5868C68.8118 57.9864 69.134 58.3957 69.7587 58.3957ZM70.8667 55.9287H71.1282V55.7985C71.1282 54.9694 70.645 54.6898 70.0203 54.6898C69.5167 54.6898 69.1039 54.8796 68.8722 55.0092C68.6809 55.0996 68.5296 55.0692 68.4191 54.8896L68.3383 54.7497C68.2377 54.5596 68.2678 54.3999 68.4491 54.3001C68.7513 54.1304 69.3254 53.8704 70.101 53.8704C71.3702 53.8704 72.1052 54.5698 72.1052 55.8485V58.7154C72.1052 58.9354 71.9847 59.0451 71.773 59.0451H71.5212C71.3095 59.0451 71.1889 58.9354 71.1889 58.7154V58.4158C71.1889 58.226 71.219 58.106 71.219 58.106H71.199C71.199 58.106 70.7255 59.1648 69.537 59.1648C68.6405 59.1648 67.8247 58.6156 67.8247 57.6666C67.8247 56.0983 69.8089 55.9287 70.8667 55.9287Z" fill="#005EB8"/>
<path fill-rule="evenodd" clip-rule="evenodd" d="M75.5088 53.8704C76.365 53.8704 76.9189 54.2003 77.1908 54.4098C77.3621 54.5198 77.3721 54.6898 77.2515 54.8594L77.1507 55.0092C77.0298 55.1891 76.8886 55.1993 76.6975 55.0891C76.4858 54.9393 76.0931 54.7097 75.5592 54.7097C74.5317 54.7097 73.7864 55.4688 73.7864 56.5076C73.7864 57.5368 74.5317 58.326 75.5792 58.326C76.1937 58.326 76.6371 58.0464 76.8786 57.8662C77.0599 57.7465 77.2108 57.7664 77.332 57.9563L77.4125 58.106C77.513 58.276 77.4829 58.4357 77.322 58.5457C77.0398 58.7754 76.4254 59.1648 75.5088 59.1648C73.9073 59.1648 72.7893 58.0361 72.7893 56.5178C72.7893 55.0192 73.9173 53.8704 75.5088 53.8704Z" fill="#005EB8"/>
<path fill-rule="evenodd" clip-rule="evenodd" d="M78.1467 52.3222C78.1467 52.1023 78.2576 51.9926 78.479 51.9926H78.7912C79.0029 51.9926 79.1135 52.1023 79.1135 52.3222V54.6099C79.1135 54.8495 79.0834 55.0294 79.0834 55.0294H79.1034C79.3251 54.5397 79.99 53.8704 81.0071 53.8704C82.2059 53.8704 82.7598 54.5198 82.7598 55.8087V58.7154C82.7598 58.9354 82.639 59.0451 82.4276 59.0451H82.1153C81.8936 59.0451 81.7828 58.9354 81.7828 58.7154V56.0284C81.7828 55.319 81.6316 54.7597 80.8158 54.7597C79.8387 54.7597 79.1135 55.5589 79.1135 56.6477V58.7154C79.1135 58.9354 79.0029 59.0451 78.7912 59.0451H78.479C78.2576 59.0451 78.1467 58.9354 78.1467 58.7154V52.3222Z" fill="#005EB8"/>
<path fill-rule="evenodd" clip-rule="evenodd" d="M85.8712 58.326C86.6265 58.326 87.3415 57.7965 87.3415 56.5076C87.3415 55.6086 86.8683 54.7196 85.8912 54.7196C85.0955 54.7196 84.4307 55.369 84.4307 56.5178C84.4307 57.6169 85.025 58.326 85.8712 58.326ZM85.74 53.8704C86.9087 53.8704 87.3214 54.7398 87.3214 54.7398H87.3415C87.3415 54.7398 87.3114 54.59 87.3114 54.3999V52.3222C87.3114 52.1022 87.4222 51.9925 87.6437 51.9925H87.9559C88.1776 51.9925 88.2884 52.1022 88.2884 52.3222V58.7154C88.2884 58.9354 88.1776 59.0451 87.9559 59.0451H87.6941C87.4727 59.0451 87.3618 58.9354 87.3618 58.7356V58.4459C87.3618 58.3061 87.3819 58.1961 87.3819 58.1961H87.3618C87.3618 58.1961 86.9287 59.1647 85.6798 59.1647C84.3001 59.1647 83.4336 58.0861 83.4336 56.5178C83.4336 54.9094 84.3906 53.8704 85.74 53.8704Z" fill="#005EB8"/>
<path fill-rule="evenodd" clip-rule="evenodd" d="M89.1033 56.512V56.3122C89.1033 56.1025 89.2239 55.9828 89.4355 55.9828H91.7119C91.9336 55.9828 92.0442 56.1025 92.0442 56.3122V56.512C92.0442 56.732 91.9336 56.8417 91.7119 56.8417H89.4355C89.2239 56.8417 89.1033 56.732 89.1033 56.512Z" fill="#005EB8"/>
<path fill-rule="evenodd" clip-rule="evenodd" d="M94.3805 58.3957C95.2367 58.3957 95.7603 57.5368 95.7603 56.7876V56.5676H95.4985C94.7833 56.5676 93.4336 56.6276 93.4336 57.5868C93.4336 57.9864 93.7561 58.3957 94.3805 58.3957ZM95.4882 55.9287H95.7503V55.7985C95.7503 54.9694 95.2668 54.6898 94.6423 54.6898C94.1388 54.6898 93.7257 54.8796 93.494 55.0092C93.3029 55.0996 93.1517 55.0692 93.0409 54.8896L92.9601 54.7497C92.8595 54.5596 92.8896 54.3999 93.0712 54.3001C93.3734 54.1304 93.9474 53.8704 94.7228 53.8704C95.992 53.8704 96.7273 54.5698 96.7273 55.8485V58.7154C96.7273 58.9354 96.6065 59.0451 96.3948 59.0451H96.143C95.9316 59.0451 95.8107 58.9354 95.8107 58.7154V58.4158C95.8107 58.226 95.8408 58.106 95.8408 58.106H95.8208C95.8208 58.106 95.3475 59.1648 94.1588 59.1648C93.2623 59.1648 92.4468 58.6156 92.4468 57.6666C92.4468 56.0983 94.4309 55.9287 95.4882 55.9287Z" fill="#005EB8"/>
<path fill-rule="evenodd" clip-rule="evenodd" d="M97.5017 56.512V56.3122C97.5017 56.1025 97.6223 55.9828 97.834 55.9828H100.11C100.332 55.9828 100.443 56.1025 100.443 56.3122V56.512C100.443 56.732 100.332 56.8417 100.11 56.8417H97.834C97.6223 56.8417 97.5017 56.732 97.5017 56.512Z" fill="#005EB8"/>
<path fill-rule="evenodd" clip-rule="evenodd" d="M101.107 58.166L101.208 58.0262C101.338 57.8565 101.469 57.8463 101.671 57.9563C101.903 58.106 102.325 58.3661 102.92 58.3661C103.424 58.3661 103.786 58.1262 103.786 57.6968C103.786 56.7077 101.157 57.0371 101.157 55.329C101.157 54.37 102.003 53.8704 103 53.8704C103.705 53.8704 104.169 54.1102 104.411 54.26C104.592 54.3501 104.622 54.5198 104.521 54.6994L104.431 54.8495C104.33 55.0294 104.179 55.0493 103.987 54.9595C103.776 54.8395 103.434 54.6699 102.95 54.6699C102.467 54.6699 102.094 54.8796 102.094 55.3088C102.094 56.318 104.723 55.9582 104.723 57.6769C104.723 58.5355 103.987 59.1648 102.89 59.1648C102.044 59.1648 101.459 58.8254 101.177 58.6156C101.006 58.5059 100.996 58.3357 101.107 58.166Z" fill="#005EB8"/>
<path fill-rule="evenodd" clip-rule="evenodd" d="M105.618 54.8296H105.266C105.054 54.8296 104.944 54.7096 104.944 54.4999V54.37C104.944 54.1603 105.054 54.0403 105.276 54.0403H105.639V52.9316C105.639 52.7116 105.759 52.6019 105.971 52.6019H106.263C106.485 52.6019 106.595 52.7116 106.595 52.9316V54.0403H107.482C107.703 54.0403 107.814 54.1603 107.814 54.37V54.4999C107.814 54.7096 107.703 54.8296 107.492 54.8296H106.595V57.0772C106.595 58.0361 107.19 58.1859 107.562 58.216C107.824 58.2359 107.915 58.3158 107.915 58.5457V58.7554C107.915 58.9851 107.784 59.0849 107.512 59.0849C106.505 59.0849 105.618 58.5059 105.618 57.2272V54.8296Z" fill="#005EB8"/>
<path fill-rule="evenodd" clip-rule="evenodd" d="M111.933 55.9781C111.903 55.0891 111.369 54.6298 110.694 54.6298C109.949 54.6298 109.344 55.1292 109.203 55.9781H111.933ZM110.714 53.8704C112.124 53.8704 112.91 54.8694 112.91 56.278C112.91 56.4581 112.769 56.6179 112.568 56.6179H109.163C109.224 57.7167 110.019 58.326 110.926 58.326C111.48 58.326 111.913 58.0961 112.145 57.9264C112.336 57.8264 112.487 57.8463 112.598 58.0361L112.688 58.1859C112.789 58.3559 112.759 58.5258 112.588 58.6256C112.286 58.8353 111.681 59.1648 110.865 59.1648C109.264 59.1648 108.166 58.0162 108.166 56.5178C108.166 54.9095 109.264 53.8704 110.714 53.8704Z" fill="#005EB8"/>
<path fill-rule="evenodd" clip-rule="evenodd" d="M115.216 58.3957C116.072 58.3957 116.595 57.5368 116.595 56.7876V56.5676H116.333C115.618 56.5676 114.269 56.6276 114.269 57.5868C114.269 57.9864 114.591 58.3957 115.216 58.3957ZM116.323 55.9287H116.585V55.7985C116.585 54.9694 116.102 54.6898 115.477 54.6898C114.973 54.6898 114.561 54.8796 114.329 55.0092C114.138 55.0996 113.986 55.0692 113.876 54.8896L113.795 54.7497C113.695 54.5596 113.725 54.3999 113.906 54.3001C114.208 54.1304 114.782 53.8704 115.558 53.8704C116.827 53.8704 117.562 54.5698 117.562 55.8485V58.7154C117.562 58.9354 117.441 59.0451 117.23 59.0451H116.978C116.767 59.0451 116.645 58.9354 116.645 58.7154V58.4158C116.645 58.226 116.676 58.106 116.676 58.106H116.655C116.655 58.106 116.182 59.1648 114.994 59.1648C114.097 59.1648 113.281 58.6156 113.281 57.6666C113.281 56.0983 115.266 55.9287 116.323 55.9287Z" fill="#005EB8"/>
<path fill-rule="evenodd" clip-rule="evenodd" d="M120.966 53.8704C121.822 53.8704 122.376 54.2003 122.648 54.4098C122.819 54.5198 122.829 54.6898 122.708 54.8594L122.608 55.0092C122.487 55.1891 122.346 55.1993 122.154 55.0891C121.943 54.9393 121.55 54.7097 121.016 54.7097C119.989 54.7097 119.243 55.4688 119.243 56.5076C119.243 57.5368 119.989 58.326 121.036 58.326C121.651 58.326 122.094 58.0464 122.336 57.8662C122.517 57.7465 122.668 57.7664 122.789 57.9563L122.869 58.106C122.97 58.276 122.94 58.4357 122.779 58.5457C122.497 58.7754 121.882 59.1648 120.966 59.1648C119.364 59.1648 118.246 58.0361 118.246 56.5178C118.246 55.0192 119.374 53.8704 120.966 53.8704Z" fill="#005EB8"/>
<path fill-rule="evenodd" clip-rule="evenodd" d="M123.604 52.3222C123.604 52.1023 123.715 51.9926 123.936 51.9926H124.248C124.46 51.9926 124.57 52.1023 124.57 52.3222V54.6099C124.57 54.8495 124.54 55.0294 124.54 55.0294H124.56C124.782 54.5397 125.447 53.8704 126.464 53.8704C127.663 53.8704 128.217 54.5198 128.217 55.8087V58.7154C128.217 58.9354 128.096 59.0451 127.884 59.0451H127.572C127.351 59.0451 127.24 58.9354 127.24 58.7154V56.0284C127.24 55.319 127.089 54.7597 126.273 54.7597C125.296 54.7597 124.57 55.5589 124.57 56.6477V58.7154C124.57 58.9354 124.46 59.0451 124.248 59.0451H123.936C123.715 59.0451 123.604 58.9354 123.604 58.7154V52.3222Z" fill="#005EB8"/>
<path fill-rule="evenodd" clip-rule="evenodd" d="M134.993 56.1981L134.208 53.9605C134.087 53.6009 133.936 52.9615 133.936 52.9615H133.916C133.916 52.9615 133.755 53.6009 133.634 53.9605L132.838 56.1981H134.993ZM133.311 52.2623C133.372 52.0724 133.493 51.9926 133.684 51.9926H134.167C134.349 51.9926 134.48 52.0724 134.54 52.2623L136.877 58.6657C136.957 58.8956 136.847 59.0451 136.605 59.0451H136.263C136.071 59.0451 135.95 58.9555 135.89 58.7754L135.255 57.0172H132.576L131.952 58.7754C131.901 58.9555 131.77 59.0451 131.589 59.0451H131.246C130.995 59.0451 130.894 58.8956 130.975 58.6657L133.311 52.2623Z" fill="#005EB8"/>
<path fill-rule="evenodd" clip-rule="evenodd" d="M137.39 52.3222C137.39 52.1023 137.5 51.9926 137.722 51.9926H138.034C138.246 51.9926 138.367 52.1023 138.367 52.3222V57.5467C138.367 58.1163 138.618 58.1961 138.83 58.216C138.981 58.2359 139.092 58.3158 139.092 58.5059V58.7455C139.092 58.9556 139.001 59.0849 138.749 59.0849C138.205 59.0849 137.39 58.9354 137.39 57.6666V52.3222Z" fill="#005EB8"/>
<path fill-rule="evenodd" clip-rule="evenodd" d="M142.075 58.326C142.891 58.326 143.555 57.6768 143.555 56.5275C143.555 55.429 142.961 54.7196 142.115 54.7196C141.35 54.7196 140.644 55.2593 140.644 56.5178C140.644 57.4469 141.118 58.326 142.075 58.326ZM139.698 52.3222C139.698 52.1022 139.809 51.9925 140.03 51.9925H140.342C140.554 51.9925 140.665 52.1022 140.665 52.3222V54.37C140.665 54.6196 140.634 54.7997 140.634 54.7997H140.654C140.654 54.7997 141.108 53.8704 142.316 53.8704C143.666 53.8704 144.542 54.9495 144.542 56.5076C144.542 58.1262 143.566 59.1647 142.236 59.1647C141.037 59.1647 140.604 58.2061 140.604 58.2061H140.584C140.584 58.2061 140.614 58.326 140.614 58.5059V58.7555C140.614 58.9354 140.493 59.0451 140.282 59.0451H140.03C139.809 59.0451 139.698 58.9354 139.698 58.7154V52.3222Z" fill="#005EB8"/>
<path fill-rule="evenodd" clip-rule="evenodd" d="M146.818 58.3957C147.674 58.3957 148.197 57.5368 148.197 56.7876V56.5676H147.936C147.221 56.5676 145.871 56.6276 145.871 57.5868C145.871 57.9864 146.193 58.3957 146.818 58.3957ZM147.925 55.9287H148.187V55.7985C148.187 54.9694 147.704 54.6898 147.08 54.6898C146.576 54.6898 146.163 54.8796 145.931 55.0092C145.74 55.0996 145.589 55.0692 145.478 54.8896L145.397 54.7497C145.297 54.5596 145.327 54.3999 145.508 54.3001C145.81 54.1304 146.385 53.8704 147.16 53.8704C148.429 53.8704 149.164 54.5698 149.164 55.8485V58.7154C149.164 58.9354 149.044 59.0451 148.832 59.0451H148.58C148.369 59.0451 148.248 58.9354 148.248 58.7154V58.4158C148.248 58.226 148.278 58.106 148.278 58.106H148.258C148.258 58.106 147.785 59.1648 146.596 59.1648C145.7 59.1648 144.884 58.6156 144.884 57.6666C144.884 56.0983 146.868 55.9287 147.925 55.9287Z" fill="#005EB8"/>
</svg>
